<svg width="1600" height="900" viewBox="0 0 1600 900" fill="none" xmlns="http://www.w3.org/2000/svg">
  <defs>
    <linearGradient id="bg" x1="160" y1="50" x2="1470" y2="860" gradientUnits="userSpaceOnUse">
      <stop stop-color="#08111E"/>
      <stop offset="1" stop-color="#101B2D"/>
    </linearGradient>
    <linearGradient id="panel" x1="220" y1="154" x2="1380" y2="760" gradientUnits="userSpaceOnUse">
      <stop stop-color="#101C2E" stop-opacity="0.97"/>
      <stop offset="1" stop-color="#0C1625" stop-opacity="0.99"/>
    </linearGradient>
  </defs>
  <rect width="1600" height="900" rx="36" fill="url(#bg)"/>
  <circle cx="1330" cy="120" r="248" fill="#123454" fill-opacity="0.30"/>
  <g>
    <rect x="220" y="154" width="1160" height="548" rx="30" fill="url(#panel)" stroke="#27384D" stroke-width="1.5"/>
  </g>
  <rect x="262" y="200" width="220" height="34" rx="17" fill="#14273C"/>
  <text x="292" y="223" fill="#8AD7FF" font-size="18" font-family="SF Pro Display, Helvetica, Arial, sans-serif" letter-spacing="2.4">PUBLIC RATES PROJECT</text>
  <text x="262" y="316" fill="#F4F7FB" font-size="68" font-weight="700" font-family="SF Pro Display, Helvetica, Arial, sans-serif">Yield Curve Interpolation Lab</text>
  <text x="262" y="368" fill="#AFC1D8" font-size="24" font-family="SF Pro Text, Helvetica, Arial, sans-serif">How linear-zero, log-linear-discount, and linear-discount interpolation reshape forward curves and swap metrics.</text>
  <rect x="262" y="432" width="126" height="38" rx="19" fill="#132638"/>
  <text x="294" y="457" fill="#DCEAF8" font-size="18" font-family="SF Pro Text, Helvetica, Arial, sans-serif">Python</text>
  <rect x="400" y="432" width="170" height="38" rx="19" fill="#132638"/>
  <text x="430" y="457" fill="#DCEAF8" font-size="18" font-family="SF Pro Text, Helvetica, Arial, sans-serif">Yield Curves</text>
  <rect x="582" y="432" width="190" height="38" rx="19" fill="#132638"/>
  <text x="614" y="457" fill="#DCEAF8" font-size="18" font-family="SF Pro Text, Helvetica, Arial, sans-serif">Interpolation</text>
  <rect x="262" y="525" width="470" height="130" rx="24" fill="#0E1929" stroke="#24364A" stroke-width="1.2"/>
  <text x="292" y="563" fill="#7D95B3" font-size="18" font-family="SF Pro Text, Helvetica, Arial, sans-serif">Main Question</text>
  <text x="292" y="603" fill="#F5F8FC" font-size="28" font-weight="600" font-family="SF Pro Display, Helvetica, Arial, sans-serif">Same market nodes, different curve shape in-between</text>
  <text x="292" y="636" fill="#96A9C0" font-size="17" font-family="SF Pro Text, Helvetica, Arial, sans-serif">That difference shows up directly in forward rates and downstream swap analytics.</text>
  <rect x="760" y="214" width="570" height="214" rx="24" fill="#0D1828" stroke="#243448" stroke-width="1.2"/>
  <text x="792" y="252" fill="#7F96B2" font-size="18" font-family="SF Pro Text, Helvetica, Arial, sans-serif">Forward Curve View</text>
  <line x1="812" y1="390" x2="1295" y2="390" stroke="#2B3D54" stroke-width="1"/>
  <line x1="812" y1="346" x2="1295" y2="346" stroke="#1E2E42" stroke-width="1"/>
  <line x1="812" y1="302" x2="1295" y2="302" stroke="#1E2E42" stroke-width="1"/>
  <line x1="812" y1="258" x2="1295" y2="258" stroke="#1E2E42" stroke-width="1"/>
  <path d="M820 345L900 330L980 300L1060 285L1140 308L1284 292" stroke="#61D9FF" stroke-width="5" stroke-linecap="round"/>
  <path d="M820 350L900 336L980 312L1060 290L1140 296L1284 299" stroke="#7CF0C5" stroke-width="5" stroke-linecap="round"/>
  <path d="M820 365L900 330L980 320L1060 270L1140 315L1284 285" stroke="#FFC86E" stroke-width="5" stroke-linecap="round"/>
  <rect x="760" y="454" width="270" height="204" rx="24" fill="#0D1828" stroke="#243448" stroke-width="1.2"/>
  <text x="792" y="492" fill="#7F96B2" font-size="18" font-family="SF Pro Text, Helvetica, Arial, sans-serif">Swap Lens</text>
  <text x="792" y="537" fill="#F6F8FB" font-size="18" font-family="SF Pro Text, Helvetica, Arial, sans-serif">5Y par rate spread across methods</text>
  <text x="792" y="574" fill="#FFFFFF" font-size="34" font-weight="700" font-family="SF Pro Display, Helvetica, Arial, sans-serif">~10 bps</text>
  <text x="792" y="618" fill="#F6F8FB" font-size="18" font-family="SF Pro Text, Helvetica, Arial, sans-serif">Signal</text>
  <text x="792" y="655" fill="#61D9FF" font-size="36" font-weight="700" font-family="SF Pro Display, Helvetica, Arial, sans-serif">Interpolation matters</text>
  <rect x="1060" y="454" width="270" height="204" rx="24" fill="#0D1828" stroke="#243448" stroke-width="1.2"/>
  <text x="1092" y="492" fill="#7F96B2" font-size="18" font-family="SF Pro Text, Helvetica, Arial, sans-serif">Use Case</text>
  <text x="1092" y="537" fill="#F6F8FB" font-size="18" font-family="SF Pro Text, Helvetica, Arial, sans-serif">Pricing, hedging, scenario analysis</text>
  <text x="1092" y="574" fill="#FFFFFF" font-size="34" font-weight="700" font-family="SF Pro Display, Helvetica, Arial, sans-serif">Curve shape → risk shape</text>
  <text x="220" y="794" fill="#7B8CA4" font-size="20" font-family="SF Pro Text, Helvetica, Arial, sans-serif">Portfolio-ready fixed-income methods demo • Forward-curve geometry and downstream pricing impact</text>
</svg>
