<svg width="1600" height="900" viewBox="0 0 1600 900" fill="none" xmlns="http://www.w3.org/2000/svg">
  <rect width="1600" height="900" rx="32" fill="#0E1117"/>
  <rect x="48" y="48" width="1504" height="804" rx="28" fill="#161922" stroke="#808495" stroke-width="1.2"/>
  <rect x="48" y="48" width="1504" height="14" rx="7" fill="#ABB6FF"/>
  <circle cx="1388" cy="126" r="96" fill="#ABB6FF" fill-opacity="0.14"/>
  <circle cx="1480" cy="786" r="140" fill="#FFC880" fill-opacity="0.14"/>
  <circle cx="128" cy="786" r="110" fill="#ABB6FF" fill-opacity="0.10"/>

  <text x="86" y="96" fill="#ABB6FF" font-size="18" font-weight="700" font-family="Inter, Arial, sans-serif" letter-spacing="2.8">PUBLIC FIXED-INCOME ANALYTICS NOTE</text>
  <text x="86" y="210" fill="#FFFFFF" font-size="66" font-weight="800" font-family="Inter, Arial, sans-serif">Yield Curve</text><text x="86" y="286" fill="#FFFFFF" font-size="66" font-weight="800" font-family="Inter, Arial, sans-serif">Interpolation Lab</text>
  <text x="88" y="360" fill="#CFCFD0" font-size="28" font-family="Inter, Arial, sans-serif">A rates methods project showing how interpolation choices</text><text x="88" y="394" fill="#CFCFD0" font-size="28" font-family="Inter, Arial, sans-serif">reshape zero curves, forward curves, and downstream swap</text><text x="88" y="428" fill="#CFCFD0" font-size="28" font-family="Inter, Arial, sans-serif">metrics from the same market nodes.</text>
  
    <g>
      <rect x="86" y="124" width="100" height="34" rx="17" fill="#262730"/>
      <text x="106" y="146" fill="#FFFFFF" font-size="18" font-family="Inter, Arial, sans-serif">Python</text>
    </g>
    
    <g>
      <rect x="198" y="124" width="160" height="34" rx="17" fill="#262730"/>
      <text x="218" y="146" fill="#FFFFFF" font-size="18" font-family="Inter, Arial, sans-serif">Yield Curves</text>
    </g>
    
    <g>
      <rect x="370" y="124" width="170" height="34" rx="17" fill="#262730"/>
      <text x="390" y="146" fill="#FFFFFF" font-size="18" font-family="Inter, Arial, sans-serif">Interpolation</text>
    </g>
    
    <g>
      <rect x="552" y="124" width="180" height="34" rx="17" fill="#262730"/>
      <text x="572" y="146" fill="#FFFFFF" font-size="18" font-family="Inter, Arial, sans-serif">Swap Analytics</text>
    </g>
    

  <rect x="872" y="136" width="616" height="304" rx="26" fill="#262730" stroke="#808495" stroke-width="1.1"/>
  <text x="904" y="180" fill="#FFFFFF" font-size="24" font-weight="700" font-family="Inter, Arial, sans-serif">Forward curve divergence</text>
  <line x1="906" y1="390" x2="1456" y2="390" stroke="#808495" stroke-width="1"/>
  <line x1="906" y1="338" x2="1456" y2="338" stroke="#808495" stroke-opacity="0.45" stroke-width="1"/>
  <line x1="906" y1="286" x2="1456" y2="286" stroke="#808495" stroke-opacity="0.45" stroke-width="1"/>
  <line x1="906" y1="234" x2="1456" y2="234" stroke="#808495" stroke-opacity="0.45" stroke-width="1"/>
  <polyline points="928.0,344.0 1014.0,318.0 1098.0,290.0 1182.0,250.0 1266.0,302.0 1350.0,274.0" fill="none" stroke="#ABB6FF" stroke-width="5.5" stroke-linecap="round" stroke-linejoin="round"/>

  <rect x="872" y="468" width="616" height="210" rx="26" fill="#262730" stroke="#808495" stroke-width="1.1"/>
  <text x="904" y="512" fill="#FFFFFF" font-size="24" font-weight="700" font-family="Inter, Arial, sans-serif">Target swap PV by method</text>
  
            <text x="996" y="558" fill="#CFCFD0" font-size="16" font-family="Inter, Arial, sans-serif">Linear zero</text>
            <rect x="996" y="566" width="300" height="18" rx="9" fill="#262730"/>
            <rect x="996" y="566" width="283.3" height="18" rx="9" fill="#FFC880"/>
            
            <text x="996" y="586" fill="#CFCFD0" font-size="16" font-family="Inter, Arial, sans-serif">Log-linear DF</text>
            <rect x="996" y="594" width="300" height="18" rx="9" fill="#262730"/>
            <rect x="996" y="594" width="290.0" height="18" rx="9" fill="#FFC880"/>
            
            <text x="996" y="614" fill="#CFCFD0" font-size="16" font-family="Inter, Arial, sans-serif">Linear DF</text>
            <rect x="996" y="622" width="300" height="18" rx="9" fill="#262730"/>
            <rect x="996" y="622" width="300.0" height="18" rx="9" fill="#FFC880"/>
            

  
    <g>
      <rect x="86" y="694" width="246" height="132" rx="22" fill="#161922" stroke="#808495" stroke-width="1.1"/>
      <text x="114" y="734" fill="#CFCFD0" font-size="18" font-family="Inter, Arial, sans-serif">5Y par range</text>
      <text x="114" y="788" fill="#ABB6FF" font-size="40" font-weight="700" font-family="Inter, Arial, sans-serif">2.0 bps</text>
    </g>
    
    <g>
      <rect x="358" y="694" width="246" height="132" rx="22" fill="#161922" stroke="#808495" stroke-width="1.1"/>
      <text x="386" y="734" fill="#CFCFD0" font-size="18" font-family="Inter, Arial, sans-serif">PV spread</text>
      <text x="386" y="788" fill="#ABB6FF" font-size="40" font-weight="700" font-family="Inter, Arial, sans-serif">560</text>
    </g>
    
    <g>
      <rect x="630" y="694" width="246" height="132" rx="22" fill="#161922" stroke="#808495" stroke-width="1.1"/>
      <text x="658" y="734" fill="#CFCFD0" font-size="18" font-family="Inter, Arial, sans-serif">curve grid</text>
      <text x="658" y="788" fill="#ABB6FF" font-size="40" font-weight="700" font-family="Inter, Arial, sans-serif">40 pts</text>
    </g>
    
  <text x="86" y="844" fill="#808495" font-size="18" font-family="Inter, Arial, sans-serif">yield-curve-interpolation-lab • public portfolio project with reproducible outputs and README-ready visuals</text>
</svg>
