<svg width="1500" height="920" viewBox="0 0 1500 920" fill="none" xmlns="http://www.w3.org/2000/svg">
<rect width="1500" height="920" rx="28" fill="#0B1220"/>
<text x="150" y="108" fill="#F5F7FB" font-size="40" font-weight="700" font-family="SF Pro Display, Helvetica, Arial, sans-serif">Par Rate And Local Forward Comparison</text>
<text x="150" y="146" fill="#91A4BD" font-size="18" font-family="SF Pro Text, Helvetica, Arial, sans-serif">The same market nodes imply slightly different swap and forward metrics once interpolation changes.</text>
<line x1="150" y1="780" x2="1350" y2="780" stroke="#32455E" stroke-width="2"/>
<line x1="150" y1="200" x2="150" y2="780" stroke="#32455E" stroke-width="2"/>
<rect x="960" y="84" width="18" height="18" rx="4" fill="#61D9FF"/>
<text x="992" y="99" fill="#DDE8F4" font-size="16" font-family="SF Pro Text, Helvetica, Arial, sans-serif">LINEAR_ZERO_RATES</text>
<rect x="960" y="112" width="18" height="18" rx="4" fill="#7CF0C5"/>
<text x="992" y="127" fill="#DDE8F4" font-size="16" font-family="SF Pro Text, Helvetica, Arial, sans-serif">LOG_LINEAR_DISCOUNT_FACTORS</text>
<rect x="960" y="140" width="18" height="18" rx="4" fill="#FFC86E"/>
<text x="992" y="155" fill="#DDE8F4" font-size="16" font-family="SF Pro Text, Helvetica, Arial, sans-serif">LINEAR_DISCOUNT_FACTORS</text>
<line x1="150" y1="780.0" x2="1350" y2="780.0" stroke="#1B2B40" stroke-width="1"/>
<text x="40" y="786.0" fill="#7890AA" font-size="16" font-family="SF Pro Text, Helvetica, Arial, sans-serif">0.00%</text>
<line x1="150" y1="635.0" x2="1350" y2="635.0" stroke="#1B2B40" stroke-width="1"/>
<text x="40" y="641.0" fill="#7890AA" font-size="16" font-family="SF Pro Text, Helvetica, Arial, sans-serif">0.95%</text>
<line x1="150" y1="490.0" x2="1350" y2="490.0" stroke="#1B2B40" stroke-width="1"/>
<text x="40" y="496.0" fill="#7890AA" font-size="16" font-family="SF Pro Text, Helvetica, Arial, sans-serif">1.90%</text>
<line x1="150" y1="345.0" x2="1350" y2="345.0" stroke="#1B2B40" stroke-width="1"/>
<text x="40" y="351.0" fill="#7890AA" font-size="16" font-family="SF Pro Text, Helvetica, Arial, sans-serif">2.86%</text>
<line x1="150" y1="200.0" x2="1350" y2="200.0" stroke="#1B2B40" stroke-width="1"/>
<text x="40" y="206.0" fill="#7890AA" font-size="16" font-family="SF Pro Text, Helvetica, Arial, sans-serif">3.81%</text>
<rect x="232.0" y="262.4" width="72.0" height="517.6" rx="12" fill="#61D9FF"/>
<text x="226.0" y="252.4" fill="#DDE8F4" font-size="14" font-family="SF Pro Text, Helvetica, Arial, sans-serif">3.40%</text>
<rect x="314.0" y="262.1" width="72.0" height="517.9" rx="12" fill="#7CF0C5"/>
<text x="308.0" y="252.1" fill="#DDE8F4" font-size="14" font-family="SF Pro Text, Helvetica, Arial, sans-serif">3.40%</text>
<rect x="396.0" y="262.3" width="72.0" height="517.7" rx="12" fill="#FFC86E"/>
<text x="390.0" y="252.3" fill="#DDE8F4" font-size="14" font-family="SF Pro Text, Helvetica, Arial, sans-serif">3.40%</text>
<text x="312.0" y="820" fill="#AABED6" font-size="15" font-family="SF Pro Text, Helvetica, Arial, sans-serif">5Y par swap</text>
<rect x="632.0" y="275.4" width="72.0" height="504.6" rx="12" fill="#61D9FF"/>
<text x="626.0" y="265.4" fill="#DDE8F4" font-size="14" font-family="SF Pro Text, Helvetica, Arial, sans-serif">3.31%</text>
<rect x="714.0" y="275.2" width="72.0" height="504.8" rx="12" fill="#7CF0C5"/>
<text x="708.0" y="265.2" fill="#DDE8F4" font-size="14" font-family="SF Pro Text, Helvetica, Arial, sans-serif">3.32%</text>
<rect x="796.0" y="275.3" width="72.0" height="504.7" rx="12" fill="#FFC86E"/>
<text x="790.0" y="265.3" fill="#DDE8F4" font-size="14" font-family="SF Pro Text, Helvetica, Arial, sans-serif">3.32%</text>
<text x="712.0" y="820" fill="#AABED6" font-size="15" font-family="SF Pro Text, Helvetica, Arial, sans-serif">7Y par swap</text>
<rect x="1032.0" y="306.2" width="72.0" height="473.8" rx="12" fill="#61D9FF"/>
<text x="1026.0" y="296.2" fill="#DDE8F4" font-size="14" font-family="SF Pro Text, Helvetica, Arial, sans-serif">3.11%</text>
<rect x="1114.0" y="313.9" width="72.0" height="466.1" rx="12" fill="#7CF0C5"/>
<text x="1108.0" y="303.9" fill="#DDE8F4" font-size="14" font-family="SF Pro Text, Helvetica, Arial, sans-serif">3.06%</text>
<rect x="1196.0" y="321.0" width="72.0" height="459.0" rx="12" fill="#FFC86E"/>
<text x="1190.0" y="311.0" fill="#DDE8F4" font-size="14" font-family="SF Pro Text, Helvetica, Arial, sans-serif">3.01%</text>
<text x="1112.0" y="820" fill="#AABED6" font-size="15" font-family="SF Pro Text, Helvetica, Arial, sans-serif">6.5Y target coupon</text>
</svg>